<svg width="183" height="25" viewBox="0 0 183 25" fill="none" xmlns="http://www.w3.org/2000/svg">
<path d="M13.8285 19.8369C13.8285 20.4408 13.909 20.8836 14.0701 21.1655C14.2512 21.4473 14.533 21.6586 14.9155 21.7995L13.9191 24.9094C12.9328 24.8289 12.1276 24.6176 11.5036 24.2754C10.8796 23.913 10.3966 23.3494 10.0544 22.5845C9.00766 24.1948 7.39736 25 5.22344 25C3.63326 25 2.36514 24.537 1.41908 23.6111C0.473028 22.6852 0 21.4775 0 19.9879C0 18.2367 0.644124 16.8981 1.93237 15.9722C3.22062 15.0463 5.08254 14.5833 7.51813 14.5833H9.14857V13.8889C9.14857 12.9428 8.94728 12.2987 8.5447 11.9565C8.14212 11.5942 7.43761 11.413 6.43117 11.413C5.90782 11.413 5.27376 11.4935 4.52899 11.6546C3.78423 11.7955 3.01933 11.9968 2.2343 12.2584L1.14734 9.11833C2.15379 8.73588 3.18036 8.44401 4.22706 8.24272C5.29389 8.04144 6.2802 7.94079 7.186 7.94079C9.48069 7.94079 11.1615 8.41382 12.2283 9.35988C13.2951 10.3059 13.8285 11.725 13.8285 13.6171V19.8369ZM6.61233 21.5882C7.69929 21.5882 8.5447 21.0749 9.14857 20.0483V17.2101H7.97103C6.88407 17.2101 6.06885 17.4014 5.52537 17.7838C5.00202 18.1663 4.74035 18.7601 4.74035 19.5652C4.74035 20.2093 4.90138 20.7126 5.22344 21.0749C5.56563 21.4171 6.02859 21.5882 6.61233 21.5882Z" fill="#0E0E0E"/>
<path d="M27.0185 7.94079C28.4074 7.94079 29.4944 8.3635 30.2794 9.20891C31.0644 10.0543 31.4569 11.2419 31.4569 12.7717V24.4867H26.6864V13.5869C26.6864 12.7818 26.5555 12.2282 26.2939 11.9263C26.0523 11.6042 25.6799 11.4432 25.1767 11.4432C24.2105 11.4432 23.2846 12.1377 22.3989 13.5266V24.4867H17.6284V8.45408H21.7951L22.1272 10.3563C22.8116 9.5511 23.5463 8.94724 24.3313 8.54466C25.1365 8.14208 26.0322 7.94079 27.0185 7.94079Z" fill="#0E0E0E"/>
<path d="M49.4264 2.08329V24.4867H45.1994L44.9578 22.6147C43.8306 24.2049 42.3109 25 40.3986 25C38.4059 25 36.8861 24.2351 35.8394 22.7053C34.8129 21.1755 34.2996 19.0821 34.2996 16.4251C34.2996 14.7947 34.5713 13.3353 35.1148 12.0471C35.6583 10.7588 36.4232 9.75239 37.4095 9.02775C38.4159 8.30311 39.5633 7.94079 40.8515 7.94079C42.3813 7.94079 43.6494 8.44401 44.6559 9.45046V1.57001L49.4264 2.08329ZM41.8781 21.4976C42.9852 21.4976 43.9111 20.8937 44.6559 19.686V12.7717C44.2734 12.3088 43.8809 11.9666 43.4783 11.7451C43.0959 11.5237 42.653 11.413 42.1498 11.413C41.2642 11.413 40.5596 11.8257 40.0363 12.6509C39.5129 13.4762 39.2513 14.7443 39.2513 16.4553C39.2513 18.3273 39.4727 19.6357 39.9155 20.3804C40.3785 21.1252 41.0327 21.4976 41.8781 21.4976Z" fill="#0E0E0E"/>
<path d="M61.8542 8.00118C62.438 8.00118 62.9714 8.07163 63.4545 8.21253L62.6997 12.8321C62.0958 12.6912 61.6127 12.6208 61.2504 12.6208C60.3043 12.6208 59.5797 12.9529 59.0765 13.6171C58.5934 14.2613 58.2109 15.2375 57.9291 16.5459V24.4867H53.1586V8.45408H57.3253L57.7178 11.564C58.0801 10.4569 58.6236 9.59136 59.3482 8.96736C60.093 8.32324 60.9283 8.00118 61.8542 8.00118Z" fill="#0E0E0E"/>
<path d="M78.3426 16.1534C78.3426 16.8176 78.3124 17.3913 78.252 17.8744H68.3184C68.4795 19.223 68.8619 20.1691 69.4658 20.7126C70.0697 21.256 70.905 21.5278 71.9718 21.5278C72.616 21.5278 73.24 21.4171 73.8438 21.1956C74.4477 20.9541 75.1019 20.5918 75.8064 20.1087L77.7689 22.7657C75.897 24.2552 73.8136 25 71.5189 25C68.9223 25 66.9296 24.2351 65.5407 22.7053C64.1518 21.1755 63.4573 19.1224 63.4573 16.5459C63.4573 14.9154 63.7492 13.4561 64.3329 12.1679C64.9167 10.8595 65.7721 9.8329 66.8994 9.08814C68.0266 8.32324 69.3752 7.94079 70.9453 7.94079C73.2601 7.94079 75.0717 8.66543 76.38 10.1147C77.6884 11.564 78.3426 13.5769 78.3426 16.1534ZM73.6627 14.7947C73.6224 12.3389 72.7569 11.1111 71.066 11.1111C70.2407 11.1111 69.5966 11.413 69.1337 12.0169C68.6908 12.6208 68.4191 13.6171 68.3184 15.006H73.6627V14.7947Z" fill="#0E0E0E"/>
<path d="M87.9972 16.4855H86.0648V24.4867H81.1131V3.56277H87.967C90.8253 3.56277 92.969 4.08612 94.3981 5.13282C95.8474 6.17952 96.5721 7.77976 96.5721 9.93355C96.5721 11.2822 96.25 12.4094 95.6059 13.3152C94.9617 14.2009 93.9452 14.9557 92.5563 15.5797L97.8704 24.4867H92.2846L87.9972 16.4855ZM86.0648 13.0736H88.1481C89.2552 13.0736 90.0805 12.822 90.624 12.3188C91.1876 11.8156 91.4694 11.0205 91.4694 9.93355C91.4694 8.92711 91.1675 8.1924 90.5636 7.72944C89.9798 7.26648 89.0741 7.03499 87.8462 7.03499H86.0648V13.0736Z" fill="#0E0E0E"/>
<path d="M104.428 8.45408V24.4867H99.6574V8.45408H104.428Z" fill="#0E0E0E"/>
<path d="M115.123 7.94079C116.23 7.94079 117.227 8.10182 118.112 8.42388C118.998 8.74595 119.833 9.2391 120.618 9.90336L118.565 12.7415C117.559 11.9766 116.542 11.5942 115.516 11.5942C114.449 11.5942 113.644 11.9867 113.1 12.7717C112.557 13.5567 112.285 14.8249 112.285 16.5761C112.285 18.2669 112.557 19.4646 113.1 20.1691C113.644 20.8736 114.429 21.2258 115.455 21.2258C115.999 21.2258 116.492 21.1453 116.935 20.9843C117.378 20.8031 117.911 20.5213 118.535 20.1389L120.618 23.0978C119.028 24.3659 117.227 25 115.214 25C113.583 25 112.174 24.6578 110.987 23.9734C109.799 23.2689 108.883 22.2927 108.239 21.0447C107.595 19.7766 107.273 18.2971 107.273 16.6063C107.273 14.9154 107.595 13.4158 108.239 12.1075C108.883 10.7991 109.799 9.78258 110.987 9.05794C112.174 8.31317 113.553 7.94079 115.123 7.94079Z" fill="#0E0E0E"/>
<path d="M135.073 19.8369C135.073 20.4408 135.154 20.8836 135.315 21.1655C135.496 21.4473 135.778 21.6586 136.16 21.7995L135.164 24.9094C134.178 24.8289 133.373 24.6176 132.749 24.2754C132.125 23.913 131.641 23.3494 131.299 22.5845C130.253 24.1948 128.642 25 126.468 25C124.878 25 123.61 24.537 122.664 23.6111C121.718 22.6852 121.245 21.4775 121.245 19.9879C121.245 18.2367 121.889 16.8981 123.177 15.9722C124.466 15.0463 126.327 14.5833 128.763 14.5833H130.393V13.8889C130.393 12.9428 130.192 12.2987 129.79 11.9565C129.387 11.5942 128.683 11.413 127.676 11.413C127.153 11.413 126.519 11.4935 125.774 11.6546C125.029 11.7955 124.264 11.9968 123.479 12.2584L122.392 9.11833C123.399 8.73588 124.425 8.44401 125.472 8.24272C126.539 8.04144 127.525 7.94079 128.431 7.94079C130.726 7.94079 132.406 8.41382 133.473 9.35988C134.54 10.3059 135.073 11.725 135.073 13.6171V19.8369ZM127.857 21.5882C128.944 21.5882 129.79 21.0749 130.393 20.0483V17.2101H129.216C128.129 17.2101 127.314 17.4014 126.77 17.7838C126.247 18.1663 125.985 18.7601 125.985 19.5652C125.985 20.2093 126.146 20.7126 126.468 21.0749C126.811 21.4171 127.274 21.5882 127.857 21.5882Z" fill="#0E0E0E"/>
<path d="M147.569 8.00118C148.153 8.00118 148.686 8.07163 149.169 8.21253L148.414 12.8321C147.811 12.6912 147.327 12.6208 146.965 12.6208C146.019 12.6208 145.294 12.9529 144.791 13.6171C144.308 14.2613 143.926 15.2375 143.644 16.5459V24.4867H138.873V8.45408H143.04L143.432 11.564C143.795 10.4569 144.338 9.59136 145.063 8.96736C145.808 8.32324 146.643 8.00118 147.569 8.00118Z" fill="#0E0E0E"/>
<path d="M164.45 2.08329V24.4867H160.223L159.981 22.6147C158.854 24.2049 157.334 25 155.422 25C153.429 25 151.91 24.2351 150.863 22.7053C149.836 21.1755 149.323 19.0821 149.323 16.4251C149.323 14.7947 149.595 13.3353 150.138 12.0471C150.682 10.7588 151.447 9.75239 152.433 9.02775C153.439 8.30311 154.587 7.94079 155.875 7.94079C157.405 7.94079 158.673 8.44401 159.679 9.45046V1.57001L164.45 2.08329ZM156.902 21.4976C158.009 21.4976 158.935 20.8937 159.679 19.686V12.7717C159.297 12.3088 158.904 11.9666 158.502 11.7451C158.119 11.5237 157.676 11.413 157.173 11.413C156.288 11.413 155.583 11.8257 155.06 12.6509C154.536 13.4762 154.275 14.7443 154.275 16.4553C154.275 18.3273 154.496 19.6357 154.939 20.3804C155.402 21.1252 156.056 21.4976 156.902 21.4976Z" fill="#0E0E0E"/>
<path d="M175.126 7.94079C177.582 7.94079 179.505 8.69562 180.893 10.2053C182.282 11.6948 182.977 13.7882 182.977 16.4855C182.977 18.1964 182.655 19.696 182.011 20.9843C181.387 22.2524 180.481 23.2387 179.293 23.9432C178.126 24.6477 176.737 25 175.126 25C172.691 25 170.769 24.2552 169.36 22.7657C167.971 21.256 167.276 19.1526 167.276 16.4553C167.276 14.7443 167.588 13.2548 168.212 11.9867C168.856 10.6984 169.762 9.70207 170.93 8.99756C172.117 8.29305 173.516 7.94079 175.126 7.94079ZM175.126 11.4432C174.16 11.4432 173.436 11.8559 172.953 12.6811C172.469 13.4863 172.228 14.7443 172.228 16.4553C172.228 18.2065 172.459 19.4847 172.922 20.2898C173.405 21.095 174.14 21.4976 175.126 21.4976C176.093 21.4976 176.817 21.095 177.3 20.2898C177.783 19.4646 178.025 18.1964 178.025 16.4855C178.025 14.7343 177.783 13.4561 177.3 12.6509C176.837 11.8458 176.113 11.4432 175.126 11.4432Z" fill="#0E0E0E"/>
<path d="M104.035 0.785026C103.512 0.261675 102.838 0 102.013 0C101.187 0 100.513 0.261675 99.9896 0.785026C99.4662 1.28825 99.2045 1.93237 99.2045 2.7174C99.2045 3.50242 99.4662 4.15661 99.9896 4.67996C100.513 5.18318 101.187 5.43479 102.013 5.43479C102.838 5.43479 103.512 5.18318 104.035 4.67996C104.579 4.15661 104.851 3.50242 104.851 2.7174C104.851 1.93237 104.579 1.28825 104.035 0.785026Z" fill="url(#paint0_linear_16_34)"/>
<defs>
<linearGradient id="paint0_linear_16_34" x1="102.028" y1="0" x2="102.028" y2="5.43479" gradientUnits="userSpaceOnUse">
<stop stop-color="#FFC814"/>
<stop offset="1" stop-color="#E6A40B"/>
</linearGradient>
</defs>
</svg>
